<?xml version="1.0" encoding="utf-8"?>
<!-- Generator: Adobe Illustrator 27.9.2, SVG Export Plug-In . SVG Version: 6.00 Build 0)  -->
<svg version="1.1" xmlns="http://www.w3.org/2000/svg" xmlns:xlink="http://www.w3.org/1999/xlink" x="0px" y="0px"
	 viewBox="0 0 150 150" style="enable-background:new 0 0 150 150;" xml:space="preserve">
<style type="text/css">
	.st0{fill:#5C8E99;}
	.st1{fill:#305161;}
	.st2{fill:#76B6C4;}
	.st3{fill:#E6FFFB;}
</style>
<g id="Layer_2">
</g>
<g id="Layer_1">
	<g>
		<g>
			<path class="st0" d="M74.5,64.5l16.59,0L74.5,81.09L74.5,64.5 M73.5,63.5l0,20l20-20L73.5,63.5L73.5,63.5z"/>
		</g>
		<g>
			<path class="st1" d="M95.52,106.91v16.59l-16.59-16.59H95.52 M96.52,105.91h-20l20,20V105.91L96.52,105.91z"/>
		</g>
		<g>
			<path class="st2" d="M115.02,107.41v17h-17v-17H115.02 M116.52,105.91h-20v20h20V105.91L116.52,105.91z"/>
		</g>
		<g>
			<path class="st2" d="M115.02,67.41v17h-18.5h-1.5v1.5v18.5h-17V86.53l19.12-19.12H115.02 M116.52,65.91h-20l-20,20v20h20v-20h20
				V65.91L116.52,65.91z"/>
		</g>
		<g>
			<g>
				<path class="st3" d="M73.06,25.09L92.48,44.5v18.09h-18v-18.5v-1h-1h-20h-1v1v19.5v1h1h19v18h-19h-1v1v39.5h-18v-98h18h1H73.06
					 M73.48,24.09h-20h-1h-19v100h20v-40.5h20v-20h-20v-19.5h20v19.5h20v-19.5L73.48,24.09L73.48,24.09z"/>
			</g>
		</g>
	</g>
</g>
</svg>
