<?xml version="1.0" encoding="utf-8"?>
<!-- Generator: Adobe Illustrator 27.9.2, SVG Export Plug-In . SVG Version: 6.00 Build 0)  -->
<svg version="1.1" id="Layer_1" xmlns="http://www.w3.org/2000/svg" xmlns:xlink="http://www.w3.org/1999/xlink" x="0px" y="0px"
	 viewBox="0 0 150 150" style="enable-background:new 0 0 150 150;" xml:space="preserve">
<style type="text/css">
	.st0{fill:#93F5EB;}
	.st1{fill:#348FDE;}
	.st2{fill:#72CBE8;}
	.st3{fill:#50A797;}
	.st4{fill:#2C5E66;}
</style>
<g>
	<polygon class="st0" points="76,105.5 96,105.5 96,125.5 	"/>
</g>
<g>
	<path class="st1" d="M114.5,107v17h-17v-17H114.5 M116,105.5H96v20h20V105.5L116,105.5z"/>
</g>
<g>
	<path class="st1" d="M114.5,67v17H96h-1.5v1.5V104h-17V86.12L96.62,67H114.5 M116,65.5H96l-20,20v20h20v-20h20V65.5L116,65.5z"/>
</g>
<g>
	<rect x="94" y="64.5" class="st2" width="4" height="4"/>
	<g>
		<rect x="113" y="122.5" class="st2" width="4" height="4"/>
		<rect x="113" y="104.5" class="st2" width="4" height="4"/>
		<rect x="93" y="82.5" class="st2" width="4" height="4"/>
		<rect x="75" y="83.5" class="st2" width="4" height="4"/>
		<rect x="113" y="64.5" class="st2" width="4" height="4"/>
		<rect x="113" y="82.5" class="st2" width="4" height="4"/>
	</g>
</g>
<g>
	<path class="st3" d="M73,23.5H53h-1H33v100h20V83h20l19.5-19.5H93v-20L73,23.5z M53,63V43.5h20V63H53z"/>
</g>
<g>
	<polygon class="st4" points="73,83 73,63 93,63 	"/>
</g>
</svg>
